<?xml version="1.0" encoding="UTF-8"?>
<!DOCTYPE svg PUBLIC "-//W3C//DTD SVG 1.1//EN" "http://www.w3.org/Graphics/SVG/1.1/DTD/svg11.dtd">
<svg xmlns="http://www.w3.org/2000/svg" version="1.1" width="32px" height="32px" style="shape-rendering:geometricPrecision; text-rendering:geometricPrecision; image-rendering:optimizeQuality; fill-rule:evenodd; clip-rule:evenodd" xmlns:xlink="http://www.w3.org/1999/xlink">
<g><path style="opacity:0.968" fill="#f9bc6f" d="M 1.5,-0.5 C 10.8333,-0.5 20.1667,-0.5 29.5,-0.5C 29.8333,0.5 30.5,1.16667 31.5,1.5C 31.5,4.5 31.5,7.5 31.5,10.5C 25.0738,11.12 19.0738,10.4533 13.5,8.5C 15.9582,8.77252 17.6249,7.77252 18.5,5.5C 12.0174,2.68285 8.68406,4.68285 8.5,11.5C 7.17793,11.33 6.01127,11.6634 5,12.5C 4.81842,14.3302 5.31842,15.9969 6.5,17.5C 6.73731,18.791 6.40397,19.791 5.5,20.5C 3.88629,18.9254 1.88629,18.2587 -0.5,18.5C -0.5,12.8333 -0.5,7.16667 -0.5,1.5C 0.5,1.16667 1.16667,0.5 1.5,-0.5 Z"/></g>
<g><path style="opacity:1" fill="#3b362f" d="M 21.5,4.5 C 22.8333,4.5 24.1667,4.5 25.5,4.5C 26.1667,8.5 24.5,10.1667 20.5,9.5C 20.366,7.70848 20.6993,6.04181 21.5,4.5 Z"/></g>
<g><path style="opacity:1" fill="#393128" d="M 13.5,8.5 C 12.596,9.20895 12.2627,10.209 12.5,11.5C 13.8333,11.5 15.1667,11.5 16.5,11.5C 16.6495,12.552 16.4828,13.552 16,14.5C 13.901,15.1305 12.0677,16.1305 10.5,17.5C 10.5,16.5 10.5,15.5 10.5,14.5C 9.5,14.5 8.5,14.5 7.5,14.5C 7.73731,15.791 7.40397,16.791 6.5,17.5C 5.31842,15.9969 4.81842,14.3302 5,12.5C 6.01127,11.6634 7.17793,11.33 8.5,11.5C 8.68406,4.68285 12.0174,2.68285 18.5,5.5C 17.6249,7.77252 15.9582,8.77252 13.5,8.5 Z"/></g>
<g><path style="opacity:1" fill="#f7b45f" d="M 13.5,8.5 C 19.0738,10.4533 25.0738,11.12 31.5,10.5C 31.5,13.1667 31.5,15.8333 31.5,18.5C 28.1625,18.0653 25.1625,18.7319 22.5,20.5C 22.3184,18.4086 22.6518,16.4086 23.5,14.5C 22.5,13.5 21.5,12.5 20.5,11.5C 19.4874,14.9532 18.4874,18.2865 17.5,21.5C 17.516,19.5159 16.516,18.5159 14.5,18.5C 12.9589,19.2858 11.6256,20.2858 10.5,21.5C 10.5,20.1667 10.5,18.8333 10.5,17.5C 12.0677,16.1305 13.901,15.1305 16,14.5C 16.4828,13.552 16.6495,12.552 16.5,11.5C 15.1667,11.5 13.8333,11.5 12.5,11.5C 12.2627,10.209 12.596,9.20895 13.5,8.5 Z"/></g>
<g><path style="opacity:1" fill="#151310" d="M 10.5,17.5 C 10.5,18.8333 10.5,20.1667 10.5,21.5C 9.69929,23.0418 9.36596,24.7085 9.5,26.5C 8.16667,26.5 6.83333,26.5 5.5,26.5C 5.5,25.5 5.5,24.5 5.5,23.5C 5.5,22.5 5.5,21.5 5.5,20.5C 6.40397,19.791 6.73731,18.791 6.5,17.5C 7.40397,16.791 7.73731,15.791 7.5,14.5C 8.5,14.5 9.5,14.5 10.5,14.5C 10.5,15.5 10.5,16.5 10.5,17.5 Z"/></g>
<g><path style="opacity:1" fill="#382c1e" d="M 22.5,20.5 C 21.5489,21.9187 21.2155,23.5853 21.5,25.5C 20.0695,25.4208 18.7362,25.7542 17.5,26.5C 16.9478,24.9974 16.9478,23.3307 17.5,21.5C 18.4874,18.2865 19.4874,14.9532 20.5,11.5C 21.5,12.5 22.5,13.5 23.5,14.5C 22.6518,16.4086 22.3184,18.4086 22.5,20.5 Z"/></g>
<g><path style="opacity:0.956" fill="#fbb052" d="M -0.5,18.5 C 1.88629,18.2587 3.88629,18.9254 5.5,20.5C 5.5,21.5 5.5,22.5 5.5,23.5C 4.56552,24.5676 4.23219,25.901 4.5,27.5C 6.41467,27.7845 8.08134,27.4511 9.5,26.5C 9.36596,24.7085 9.69929,23.0418 10.5,21.5C 11.6256,20.2858 12.9589,19.2858 14.5,18.5C 16.516,18.5159 17.516,19.5159 17.5,21.5C 16.9478,23.3307 16.9478,24.9974 17.5,26.5C 18.7362,25.7542 20.0695,25.4208 21.5,25.5C 21.2155,23.5853 21.5489,21.9187 22.5,20.5C 25.1625,18.7319 28.1625,18.0653 31.5,18.5C 31.5,22.1667 31.5,25.8333 31.5,29.5C 30.5,29.8333 29.8333,30.5 29.5,31.5C 20.1667,31.5 10.8333,31.5 1.5,31.5C 1.16667,30.5 0.5,29.8333 -0.5,29.5C -0.5,25.8333 -0.5,22.1667 -0.5,18.5 Z"/></g>
<g><path style="opacity:1" fill="#a57435" d="M 5.5,23.5 C 5.5,24.5 5.5,25.5 5.5,26.5C 6.83333,26.5 8.16667,26.5 9.5,26.5C 8.08134,27.4511 6.41467,27.7845 4.5,27.5C 4.23219,25.901 4.56552,24.5676 5.5,23.5 Z"/></g>
</svg>
